<svg width="1115" height="1115" viewBox="0 0 1115 1115" fill="none" xmlns="http://www.w3.org/2000/svg">
<g opacity="0.1">
<path d="M515.309 750.589C492.976 765.441 470.203 768.411 447.87 751.249C425.757 734.197 423.776 710.874 432.247 682.27C403.314 688.541 377.24 688.321 360.188 662.577C345.556 640.464 349.076 618.901 363.488 597.999C365.249 596.238 367.119 594.478 368.879 592.718C379.22 585.237 391.212 578.086 403.314 580.507C425.316 584.907 421.246 574.675 422.456 559.273C424.106 537.82 421.796 529.129 397.813 532.54C389.122 533.75 379.11 526.049 369.649 522.308C367.119 519.778 364.588 517.248 362.058 514.717C349.296 493.374 345.446 471.702 360.848 450.139C377.9 426.266 402.104 424.175 431.807 432.097C424.326 402.833 425.427 377.199 451.06 360.147C473.063 345.625 494.626 349.255 515.419 363.667C517.179 365.428 518.939 367.298 520.699 369.058C524.99 379.399 534.011 390.621 532.471 400.082C528.18 425.386 540.282 420.875 557.884 422.305C579.007 424.065 580.877 418.235 580.217 400.192C579.887 389.961 587.918 379.509 592.209 369.058C594.079 367.188 595.949 365.208 597.82 363.337C619.933 347.715 642.816 345.075 665.039 362.017C687.262 378.849 689.902 402.063 681.211 430.446C709.375 425.606 735.778 424.396 753.05 450.359C767.682 472.472 764.382 494.035 750.41 515.047C748.32 517.138 746.119 519.338 744.029 521.428C733.468 525.499 722.466 533.97 712.565 532.87C691.112 530.45 691.332 538.041 691.552 556.303C691.772 573.906 690.782 582.376 712.565 580.066C722.466 578.966 733.468 587.437 744.029 591.617C746.229 593.818 748.43 595.908 750.52 598.109C765.372 620.332 768.232 643.104 751.29 665.217C734.458 687.11 711.575 690.631 682.971 681.28C688.802 710.764 687.812 737.717 660.528 754.659C639.625 767.641 618.832 764.121 598.92 751.359C596.279 748.609 593.529 745.968 590.889 743.218C580.327 727.596 577.687 710.213 580.547 692.061C550.623 688.65 525.65 689.531 528.73 729.246C529.06 733.977 523.78 739.257 521.139 744.208C519.269 746.518 517.289 748.609 515.309 750.589ZM658.878 659.167C641.716 648.715 677.8 615.931 639.405 615.821C619.823 615.711 615.312 622.422 615.422 640.574C615.752 678.419 647.986 642.444 658.878 659.167ZM455.351 659.497C465.912 645.085 504.197 679.189 497.596 632.433C492.316 595.248 468.662 624.512 455.571 614.941C460.961 630.453 455.241 643.435 455.351 659.497ZM660.198 455.42C614.762 460.15 615.862 460.26 614.652 470.822C610.251 507.456 637.865 494.915 659.318 500.635C652.827 483.803 657.778 469.942 660.198 455.42ZM454.91 453.439C457.441 469.942 458.981 484.133 456.561 500.086C469.102 488.864 494.186 516.588 498.366 479.733C503.647 434.187 465.142 470.382 454.91 453.439ZM539.182 554.103C539.952 563.784 532.581 577.646 552.493 573.795C562.505 571.815 575.487 578.966 573.836 558.063C572.736 543.871 571.966 538.37 555.684 539.36C543.472 540.241 534.671 539.031 539.182 554.103Z" fill="#28C04B"/>
<path d="M520.699 369.278C518.939 367.518 517.179 365.648 515.419 363.888C515.199 361.577 515.419 359.157 514.538 357.067C502.987 331.653 502.547 307.56 526.2 288.968C545.452 273.786 567.126 273.786 586.488 288.748C610.251 307.23 609.921 331.323 598.7 356.847C597.82 358.827 598.04 361.357 597.709 363.558C595.839 365.428 593.969 367.408 592.099 369.278C568.446 379.069 544.572 378.849 520.699 369.278Z" fill="#28C04B"/>
<path d="M750.632 598.549C748.432 596.348 746.231 594.258 744.141 592.058C734.13 568.735 734.24 545.302 744.141 521.979C746.231 519.889 748.432 517.688 750.522 515.598C758.113 513.287 765.594 510.317 773.295 508.777C795.408 504.596 814.44 509.987 827.092 529.57C838.644 547.502 838.644 566.425 827.202 584.357C814.55 604.05 795.518 609.441 773.515 605.26C765.704 603.83 758.223 600.749 750.632 598.549Z" fill="#28C04B"/>
<path d="M591 743.548C593.64 746.299 596.391 748.94 599.031 751.69C600.461 757.191 602.002 762.691 603.432 768.192C609.593 791.515 605.852 812.308 585.169 826.61C566.137 839.702 545.674 839.482 526.972 825.84C506.619 810.988 503.428 790.085 510.249 766.982C511.9 761.481 513.55 756.09 515.31 750.589C517.29 748.609 519.271 746.629 521.251 744.539C544.354 734.747 567.567 734.967 591 743.548Z" fill="#28C04B"/>
<path d="M368.99 592.829C367.23 594.589 365.359 596.349 363.599 598.109C335.765 607.021 307.602 615.052 286.809 585.018C274.707 567.525 274.377 548.382 286.039 530.45C305.841 499.756 334.005 506.577 362.169 514.938C364.699 517.469 367.23 519.999 369.76 522.529C379.001 546.072 378.121 569.506 368.99 592.829Z" fill="#28C04B"/>
<path d="M833.364 708.784C833.914 734.637 810.701 757.96 784.738 757.41C760.204 756.97 738.312 735.077 737.762 710.544C737.211 684.58 760.424 661.367 786.278 661.918C811.031 662.358 832.924 684.141 833.364 708.784Z" fill="#28C04B"/>
<path d="M328.064 756.97C302.431 757.19 279.548 733.868 280.318 708.344C281.088 684.031 302.871 662.578 327.184 662.248C352.817 662.028 375.7 685.351 374.93 710.874C374.16 735.298 352.377 756.75 328.064 756.97Z" fill="#28C04B"/>
<path d="M451.391 784.364C452.381 809.997 429.608 833.541 403.864 833.541C379.551 833.541 357.438 812.197 356.448 787.664C355.458 762.141 378.231 738.488 403.974 738.488C428.398 738.598 450.511 759.83 451.391 784.364Z" fill="#28C04B"/>
<path d="M782.976 451.899C757.012 450.249 735.559 425.385 738.2 399.972C740.73 375.329 764.053 355.196 788.257 356.736C814.11 358.386 835.673 383.25 833.032 408.663C830.502 433.306 807.179 453.439 782.976 451.899Z" fill="#28C04B"/>
<path d="M325.974 356.956C350.067 355.966 372.95 376.539 374.931 400.962C377.021 426.265 355.128 450.689 329.385 451.679C303.861 452.669 280.318 429.896 280.428 404.263C280.318 379.949 301.551 357.946 325.974 356.956Z" fill="#28C04B"/>
<path d="M756.903 328.243C756.793 354.096 733.03 376.869 707.397 375.659C682.863 374.559 661.631 352.336 661.741 327.803C661.851 301.949 685.614 279.176 711.247 280.386C735.781 281.486 757.013 303.709 756.903 328.243Z" fill="#28C04B"/>
<path d="M404.194 280.606C429.828 280.716 452.491 304.37 451.281 329.893C450.181 354.316 427.958 375.439 403.754 375.329C378.121 375.219 355.458 351.566 356.558 326.043C357.768 301.729 379.881 280.496 404.194 280.606Z" fill="#28C04B"/>
<path d="M756.901 785.463C757.231 811.317 733.908 834.31 708.164 833.65C683.631 832.99 662.068 811.097 661.738 786.564C661.408 760.71 684.621 737.717 710.474 738.377C735.008 739.038 756.57 760.82 756.901 785.463Z" fill="#28C04B"/>
<path d="M436.209 859.614C440.059 832.77 455.242 818.358 482.305 818.578C508.159 818.798 527.081 840.801 523.781 866.875C520.37 894.048 503.318 907.69 476.584 905.71C449.301 903.73 436.979 886.017 436.209 859.614Z" fill="#28C04B"/>
<path d="M861.856 677.76C835.012 675.339 819.28 661.368 817.96 634.084C816.75 608.121 837.763 587.438 863.726 589.418C890.79 591.399 906.192 607.24 905.752 634.304C905.312 661.588 888.699 675.45 861.856 677.76Z" fill="#28C04B"/>
<path d="M295.061 632.873C292.971 659.827 279.329 676.33 251.715 676.55C224.432 676.77 208.369 661.257 208.039 633.864C207.709 606.58 223.221 590.628 250.615 590.188C278.229 589.748 292.421 605.81 295.061 632.873Z" fill="#28C04B"/>
<path d="M677.362 861.814C675.382 888.438 661.74 905.27 634.457 906.04C607.393 906.81 591.331 891.738 589.02 864.564C586.82 838.601 607.173 817.259 633.246 818.249C660.42 819.349 674.722 834.86 677.362 861.814Z" fill="#28C04B"/>
<path d="M861.195 525.059C834.242 522.198 818.84 507.897 817.96 480.613C817.189 454.65 838.642 434.297 864.606 436.717C891.669 439.247 906.741 455.42 905.751 482.483C904.761 509.657 887.819 523.189 861.195 525.059Z" fill="#28C04B"/>
<path d="M253.035 436.828C279.878 440.128 295.5 454.98 294.4 482.264C293.3 509.657 276.798 524.619 249.514 523.739C222.121 522.749 207.159 506.137 208.039 478.963C209.029 451.349 226.081 438.258 253.035 436.828Z" fill="#28C04B"/>
<path d="M524.442 250.572C521.581 279.286 507.279 295.348 479.666 294.908C452.162 294.468 436.54 278.406 436.98 251.012C437.31 223.509 453.482 208.107 480.876 208.217C508.709 208.437 521.911 225.599 524.442 250.572Z" fill="#28C04B"/>
<path d="M677.143 252.113C674.612 278.956 660.531 294.358 633.247 295.348C607.283 296.228 587.151 275.326 589.241 249.362C591.441 222.299 607.393 207.337 634.347 208.107C661.631 208.877 675.162 225.489 677.143 252.113Z" fill="#28C04B"/>
<path d="M328.835 902.519C304.852 899.769 288.899 887.227 288.349 863.134C287.799 839.15 302.981 823.529 326.855 822.979C350.838 822.429 366.35 837.61 367.01 861.374C367.56 885.577 351.828 898.558 328.835 902.519Z" fill="#28C04B"/>
<path d="M557.335 979.09C533.682 976.34 517.62 963.688 517.07 939.595C516.52 915.501 531.812 899.77 555.795 899.219C579.888 898.669 595.51 913.962 596.17 937.835C596.831 962.038 581.098 975.24 557.335 979.09Z" fill="#28C04B"/>
<path d="M941.176 516.808C962.519 520.218 977.041 533.09 978.361 557.074C979.571 578.746 957.018 599.979 935.785 597.009C912.352 593.818 898.6 579.296 898.38 555.203C898.05 534.74 918.843 516.258 941.176 516.808Z" fill="#28C04B"/>
<path d="M214.97 556.633C211.12 581.277 198.028 596.679 174.045 596.129C150.281 595.469 135.209 579.957 135.869 556.084C136.42 532.32 152.042 517.358 175.915 517.798C199.898 518.348 211.89 534.631 214.97 556.633Z" fill="#28C04B"/>
<path d="M556.015 135.167C579.448 137.917 595.51 150.569 595.84 174.552C596.28 198.535 581.098 214.047 557.225 214.597C533.242 215.147 517.73 199.965 517.18 176.092C516.74 151.999 532.362 138.907 556.015 135.167Z" fill="#28C04B"/>
<path d="M367.56 251.013C364.919 274.336 352.378 290.288 328.505 290.728C304.631 291.278 289.119 276.206 288.569 252.443C288.019 228.57 303.091 213.058 326.854 212.508C350.728 211.847 363.819 227.36 367.56 251.013Z" fill="#28C04B"/>
<path d="M825.99 863.024C822.029 886.787 808.938 902.519 784.734 901.859C760.751 901.199 745.459 885.467 746.119 861.374C746.779 837.39 762.401 822.208 786.495 822.758C810.698 823.308 823.239 839.481 825.99 863.024Z" fill="#28C04B"/>
<path d="M784.955 211.297C808.608 214.048 824.671 226.699 825.111 250.903C825.551 274.996 810.369 290.728 786.385 291.278C762.292 291.828 746.67 276.536 746.01 252.553C745.46 228.24 761.192 215.148 784.955 211.297Z" fill="#28C04B"/>
<path d="M250.835 745.969C275.478 749.819 290.99 762.911 290.33 786.894C289.78 810.657 274.268 825.73 250.395 825.179C226.632 824.629 211.669 809.117 211.999 785.244C212.55 761.151 228.832 749.049 250.835 745.969Z" fill="#28C04B"/>
<path d="M862.516 368.398C838.973 365.538 822.801 352.886 822.361 328.793C821.921 304.7 837.213 289.078 861.086 288.528C885.179 287.977 900.801 303.27 901.351 327.253C902.121 351.456 886.389 364.548 862.516 368.398Z" fill="#28C04B"/>
<path d="M291.32 326.812C288.57 350.795 276.028 366.638 252.155 367.078C228.282 367.518 212.77 352.556 212.22 328.792C211.67 304.919 226.742 289.517 250.505 288.857C274.488 288.197 287.36 303.819 291.32 326.812Z" fill="#28C04B"/>
<path d="M902.563 786.894C898.712 810.327 885.84 824.849 861.857 826.059C840.074 827.159 819.061 804.606 822.032 783.373C825.332 759.94 839.964 745.198 863.837 746.409C887.49 747.509 900.032 763.461 902.563 786.894Z" fill="#28C04B"/>
<path d="M939.418 367.628C962.851 370.048 975.613 383.03 974.512 406.353C973.302 430.006 958.56 441.888 935.347 440.458C913.564 439.137 901.683 425.716 902.013 403.933C902.343 380.28 916.315 368.838 939.418 367.628Z" fill="#28C04B"/>
<path d="M939.308 746.739C914.885 744.539 901.463 732.437 901.903 709.113C902.233 685.9 915.765 672.919 938.868 673.249C962.081 673.579 974.953 687.111 974.843 710.214C974.733 733.757 960.321 744.649 939.308 746.739Z" fill="#28C04B"/>
<path d="M173.495 745.968C150.392 743.328 137.851 730.566 139.171 707.353C140.491 683.81 155.233 672.259 178.116 673.799C199.679 675.229 211.231 688.651 210.9 710.214C210.35 733.867 196.488 744.978 173.495 745.968Z" fill="#28C04B"/>
<path d="M709.265 138.798C732.368 140.558 745.79 152.659 745.35 176.202C744.8 199.746 730.938 212.177 707.615 211.407C685.942 210.747 673.62 197.985 673.18 176.313C672.85 152.659 686.052 140.558 709.265 138.798Z" fill="#28C04B"/>
<path d="M177.343 440.788C152.919 439.358 139.058 427.916 139.168 404.373C139.278 380.94 152.589 368.178 175.803 368.508C197.365 368.728 209.907 381.05 210.897 402.613C211.887 426.156 198.576 438.037 177.343 440.788Z" fill="#28C04B"/>
<path d="M746.121 938.715C743.371 963.468 730.389 976.23 706.956 974.909C683.303 973.589 671.531 958.737 673.071 935.524C674.502 913.741 688.143 902.079 709.816 902.409C733.91 902.739 744.471 917.372 746.121 938.715Z" fill="#28C04B"/>
<path d="M405.185 975.349C380.432 973.259 367.231 960.937 368.001 937.504C368.771 913.961 382.853 901.75 406.066 902.63C427.739 903.51 439.84 916.381 440.17 938.164C440.39 962.037 426.418 973.149 405.185 975.349Z" fill="#28C04B"/>
<path d="M440.28 176.753C437.64 199.856 424.878 212.398 401.665 211.077C378.122 209.757 366.571 195.015 368.111 172.132C369.541 150.569 382.963 139.018 404.526 139.348C428.179 139.898 439.18 153.76 440.28 176.753Z" fill="#28C04B"/>
<path d="M1014.45 666.428C993.545 662.357 980.673 650.915 982.434 630.783C984.194 611.2 997.616 599.099 1017.97 601.079C1036.12 602.95 1047.67 615.491 1047.01 633.974C1046.35 654.326 1032.49 664.118 1014.45 666.428Z" fill="#28C04B"/>
<path d="M98.684 665.218C79.2114 663.237 66.6698 652.456 67.1099 632.213C67.5499 613.841 79.4315 601.959 97.914 601.849C118.047 601.739 130.368 614.171 129.928 634.304C129.708 652.786 117.717 663.017 98.684 665.218Z" fill="#28C04B"/>
<path d="M631.926 66.738C649.749 67.9481 662.731 77.0794 664.491 95.6719C666.361 116.025 654.59 129.557 634.567 130.657C614.434 131.757 601.452 119.215 601.232 98.9725C601.012 80.27 613.004 69.7084 631.926 66.738Z" fill="#28C04B"/>
<path d="M1047.67 479.513C1045.8 498.986 1035.46 512.517 1015.33 512.847C995.304 513.178 982.542 500.416 982.322 480.393C982.102 461.911 994.204 449.589 1012.25 448.379C1032.49 447.059 1043.82 459.6 1047.67 479.513Z" fill="#28C04B"/>
<path d="M97.6938 448.709C115.296 449.809 128.058 458.83 129.818 477.313C131.688 497.555 120.137 510.867 100.224 511.967C80.2016 513.067 67.4399 500.746 67.2199 480.503C66.9998 462.131 78.6613 451.569 97.6938 448.709Z" fill="#28C04B"/>
<path d="M512.999 1014.29C511.019 1033.55 500.567 1046.86 480.655 1047.08C460.742 1047.19 448.311 1034.43 448.311 1014.51C448.311 996.142 460.302 984.041 478.345 983.05C498.257 981.95 509.589 994.272 512.999 1014.29Z" fill="#28C04B"/>
<path d="M512.56 98.4221C511.13 116.464 501.558 129.226 483.076 130.657C462.833 132.197 449.412 120.205 448.641 100.072C447.871 79.8295 460.633 67.1781 480.986 67.2881C499.468 67.2881 509.92 79.4995 512.56 98.4221Z" fill="#28C04B"/>
<path d="M633.026 1047.63C613.443 1045.1 600.461 1034.32 600.901 1014.29C601.342 994.382 614.543 982.17 634.456 982.94C652.608 983.6 664.6 995.702 665.04 1013.96C665.48 1033.99 652.828 1044.88 633.026 1047.63Z" fill="#28C04B"/>
<path d="M937.987 891.628C919.175 890.088 908.613 879.967 909.493 860.604C910.263 843.002 920.825 833.321 938.427 833.431C957.9 833.651 968.021 844.872 967.251 864.014C966.481 881.837 955.699 890.418 937.987 891.628Z" fill="#28C04B"/>
<path d="M859.215 146.168C879.677 147.158 890.789 156.4 890.679 175.872C890.569 193.365 880.667 203.596 863.175 203.926C844.033 204.366 833.361 194.025 833.361 174.772C833.251 157.06 843.923 148.479 859.215 146.168Z" fill="#28C04B"/>
<path d="M862.408 909.45C880.12 910.991 890.571 920.012 890.901 937.724C891.231 957.087 880.67 967.758 861.307 967.648C843.705 967.428 833.584 957.417 833.144 939.814C832.704 920.232 843.595 910.55 862.408 909.45Z" fill="#28C04B"/>
<path d="M935.676 222.299C956.139 223.289 967.361 232.64 967.141 252.223C967.031 269.825 957.019 280.167 939.417 280.497C920.164 280.937 909.383 270.485 909.383 251.123C909.383 233.3 920.164 224.499 935.676 222.299Z" fill="#28C04B"/>
<path d="M279.988 175.982C278.227 193.254 269.206 203.706 251.494 203.596C232.021 203.486 221.9 192.044 223.11 173.011C224.21 155.519 235.322 146.278 252.814 147.048C270.416 147.818 278.887 158.6 279.988 175.982Z" fill="#28C04B"/>
<path d="M176.026 833.541C193.409 835.411 203.64 844.762 203.42 862.584C203.09 882.277 191.318 892.178 172.286 890.748C154.573 889.427 145.552 877.986 146.542 860.494C147.532 842.671 158.534 834.311 176.026 833.541Z" fill="#28C04B"/>
<path d="M812.899 97.9821C811.469 113.714 803.218 124.716 787.485 125.486C769.993 126.366 758.882 115.694 759.102 98.202C759.322 82.4699 769.773 72.4585 785.615 72.3485C801.567 72.2385 810.149 82.5801 812.899 97.9821Z" fill="#28C04B"/>
<path d="M354.687 99.082C352.377 114.484 344.016 125.266 328.394 125.376C311.122 125.486 300.34 114.484 301.33 97.2119C302.211 81.9199 312.882 71.9083 328.614 72.5684C344.346 73.1185 352.487 83.6799 354.687 99.082Z" fill="#28C04B"/>
<path d="M251.163 909.781C268.656 910.991 279.437 919.902 279.657 937.724C279.987 957.197 268.986 967.868 249.623 967.098C231.911 966.438 222.45 955.547 222.78 937.944C223.22 920.122 233.671 911.211 251.163 909.781Z" fill="#28C04B"/>
<path d="M1014.45 813.628C997.615 811.207 986.723 802.076 987.603 784.364C988.373 768.632 998.605 758.731 1014.56 758.951C1032.05 759.171 1042.39 770.062 1041.73 787.554C1040.96 803.506 1030.4 811.757 1014.45 813.628Z" fill="#28C04B"/>
<path d="M96.593 758.84C113.425 760.711 124.317 768.962 124.977 784.474C125.747 801.746 114.965 812.747 97.5831 812.417C82.071 812.087 72.1696 801.636 72.0596 785.904C72.0596 769.842 83.1712 762.141 96.593 758.84Z" fill="#28C04B"/>
<path d="M176.025 280.497C156.883 278.516 146.541 269.385 146.651 251.673C146.871 232.2 158.313 222.189 177.345 223.399C194.838 224.499 203.969 235.72 203.199 253.213C202.429 271.145 190.987 278.846 176.025 280.497Z" fill="#28C04B"/>
<path d="M1012.91 355.417C996.624 352.006 985.953 342.435 987.933 324.942C989.583 309.65 1000.25 299.859 1015.99 301.069C1033.15 302.389 1043.16 313.611 1041.4 330.883C1039.75 346.395 1028.97 354.426 1012.91 355.417Z" fill="#28C04B"/>
<path d="M354.799 1016.06C351.938 1031.46 343.357 1041.8 327.295 1041.58C311.453 1041.36 301.001 1031.35 300.891 1015.51C300.781 997.903 311.893 987.341 329.385 988.331C345.227 989.321 353.479 1000.32 354.799 1016.06Z" fill="#28C04B"/>
<path d="M783.856 987.231C802.229 989.871 813.23 998.783 812.46 1016.27C811.8 1031.79 801.568 1041.8 785.946 1041.8C768.674 1041.69 758.223 1031.02 758.773 1013.63C759.213 997.793 770.434 990.311 783.856 987.231Z" fill="#28C04B"/>
<path d="M125.418 328.683C122.447 344.305 113.756 354.756 97.6939 354.096C81.9618 353.436 71.8404 342.984 72.3905 327.032C73.0506 311.3 83.5021 301.179 99.4542 301.729C115.406 302.389 123.657 313.171 125.418 328.683Z" fill="#28C04B"/>
<path d="M1115 556.413C1113.46 571.925 1105.43 580.836 1090.69 580.726C1075.95 580.616 1067.14 571.485 1067.25 556.853C1067.36 542.111 1076.5 533.31 1091.13 533.42C1106.09 533.42 1113.57 542.771 1115 556.413Z" fill="#28C04B"/>
<path d="M730.17 1088.66C729.619 1102.64 723.569 1110.67 711.687 1111.88C698.155 1113.2 689.244 1106.05 688.804 1092.18C688.364 1078.43 696.505 1070.73 710.257 1070.84C722.579 1070.95 728.189 1079.31 730.17 1088.66Z" fill="#28C04B"/>
<path d="M533.241 1091.74C535.442 1075.24 544.133 1067.21 558.765 1068.42C573.727 1069.63 581.098 1079.75 579.557 1094.27C578.237 1107.15 569.546 1114.74 556.234 1114.3C541.052 1113.97 534.451 1104.4 533.241 1091.74Z" fill="#28C04B"/>
<path d="M424.658 1091.19C423.228 1104.18 416.297 1112.32 402.656 1111.66C390.884 1111.11 383.623 1103.52 383.623 1091.74C383.623 1078.21 391.764 1070.51 405.186 1071.06C417.067 1071.5 423.118 1079.31 424.658 1091.19Z" fill="#28C04B"/>
<path d="M424.437 22.8418C422.786 34.6134 416.516 42.6446 404.634 42.6446C390.992 42.7547 382.961 34.2833 384.061 20.7515C384.941 9.19995 392.972 1.93905 405.074 2.59914C416.956 3.25923 423.116 11.0702 424.437 22.8418Z" fill="#28C04B"/>
<path d="M579.559 22.7318C577.689 39.234 568.448 46.6051 553.706 45.1749C540.284 43.8547 533.243 34.8334 534.013 21.4117C535.003 5.89959 544.795 -1.25129 559.537 0.178903C573.068 1.38906 579.119 10.6302 579.559 22.7318Z" fill="#28C04B"/>
<path d="M730.279 21.8521C727.858 36.4841 720.267 44.2952 706.846 42.865C695.404 41.6548 688.143 33.8437 688.913 21.8521C689.793 8.43033 698.374 1.05936 711.686 2.26952C723.458 3.47969 728.739 12.0608 730.279 21.8521Z" fill="#28C04B"/>
<path d="M42.7964 404.263C41.3662 416.034 35.0954 424.065 23.2138 424.285C9.57198 424.505 1.43079 416.144 2.31091 402.612C3.08101 390.951 11.0021 383.69 23.1037 384.24C35.0953 384.79 41.2562 392.601 42.7964 404.263Z" fill="#28C04B"/>
<path d="M1112.14 402.172C1111.15 417.134 1104.44 425.055 1090.69 425.165C1078.8 425.165 1071.21 418.455 1070.22 406.683C1069.12 393.371 1075.72 384.68 1089.48 383.69C1103.45 382.59 1110.05 390.841 1112.14 402.172Z" fill="#28C04B"/>
<path d="M44.7769 557.074C43.7868 571.376 36.0857 579.736 21.0137 579.186C7.70195 578.746 0.001045 570.715 0.001045 557.404C-0.10897 542.332 8.47217 534.19 23.5442 534.63C36.856 535.18 43.7868 543.322 44.7769 557.074Z" fill="#28C04B"/>
<path d="M42.7966 710.214C41.0364 721.876 34.5455 729.797 22.6639 729.687C9.02209 729.577 1.1009 720.995 2.42108 707.464C3.52122 695.912 11.6623 688.651 23.764 689.641C35.5355 690.521 41.6965 698.332 42.7966 710.214Z" fill="#28C04B"/>
<path d="M1112.03 709.223C1111.15 722.535 1104.44 730.456 1090.69 730.456C1078.8 730.456 1071.21 723.745 1070.22 711.974C1069.12 698.662 1075.72 689.861 1089.48 688.981C1103.12 688.101 1110.49 695.582 1112.03 709.223Z" fill="#28C04B"/>
</g>
</svg>
