<svg width="139" height="138" viewBox="0 0 139 138" fill="none" xmlns="http://www.w3.org/2000/svg">
<path d="M138.085 70.8866C138.085 75.1562 131.364 78.7107 130.566 82.7457C129.744 86.9036 134.578 92.7521 132.991 96.5773C131.377 100.47 123.808 101.18 121.492 104.639C119.158 108.125 121.383 115.388 118.428 118.343C115.472 121.299 108.21 119.073 104.724 121.407C101.264 123.723 100.554 131.293 96.662 132.907C92.8368 134.493 86.9883 129.659 82.8304 130.481C78.7954 131.28 75.2409 138 70.9713 138C66.7017 138 63.1472 131.28 59.1122 130.481C54.9543 129.659 49.1058 134.492 45.2805 132.906C41.3881 131.292 40.6783 123.722 37.2189 121.407C33.733 119.073 26.4702 121.298 23.5146 118.342C20.5591 115.387 22.7844 108.124 20.4505 104.638C18.1347 101.179 10.5648 100.469 8.95124 96.5766C7.36485 92.7513 12.1987 86.9029 11.3765 82.7449C10.5784 78.7099 3.85791 75.1554 3.85791 70.8858C3.85791 66.6162 10.5784 63.0618 11.3765 59.0268C12.1987 54.8688 7.36561 49.0204 8.95124 45.1951C10.5655 41.3027 18.1347 40.5928 20.4505 37.1334C22.7844 33.6476 20.5591 26.3847 23.5146 23.4292C26.4702 20.4737 33.733 22.699 37.2189 20.3651C40.6783 18.0492 41.3881 10.4793 45.2805 8.8658C49.1058 7.27941 54.9543 12.1133 59.1122 11.291C63.1472 10.4929 66.7017 3.77246 70.9705 3.77246C75.2401 3.77246 78.7946 10.4929 82.8296 11.291C86.9876 12.1133 92.836 7.28017 96.6613 8.8658C100.554 10.4801 101.264 18.0492 104.723 20.3651C108.209 22.699 115.472 20.4737 118.428 23.4292C121.383 26.3847 119.158 33.6476 121.492 37.1334C123.808 40.5928 131.378 41.3027 132.991 45.1951C134.578 49.0204 129.744 54.8688 130.566 59.0268C131.364 63.0633 138.085 66.6178 138.085 70.8866Z" fill="#212121"/>
<path d="M135.065 67.1134C135.065 71.383 128.345 74.9375 127.547 78.9725C126.725 83.1304 131.558 88.9788 129.972 92.8041C128.358 96.6966 120.789 97.4064 118.473 100.866C116.139 104.352 118.364 111.615 115.409 114.57C112.453 117.526 105.19 115.3 101.704 117.634C98.245 119.95 97.5352 127.52 93.6428 129.133C89.8175 130.72 83.969 125.886 79.8111 126.708C75.7761 127.506 72.2216 134.227 67.952 134.227C63.6824 134.227 60.1279 127.506 56.0929 126.708C51.935 125.886 46.0866 130.719 42.2613 129.133C38.3688 127.519 37.659 119.95 34.1996 117.634C30.7137 115.3 23.4509 117.526 20.4954 114.57C17.5398 111.615 19.7652 104.352 17.4312 100.866C15.1154 97.4064 7.54552 96.6966 5.93198 92.8041C4.34559 88.9788 9.17943 83.1304 8.35719 78.9725C7.5591 74.9375 0.838623 71.383 0.838623 67.1134C0.838623 62.8438 7.5591 59.2893 8.35719 55.2543C9.17943 51.0964 4.34634 45.2479 5.93198 41.4226C7.54628 37.5302 15.1154 36.8204 17.4312 33.3609C19.7652 29.8751 17.5398 22.6123 20.4954 19.6567C23.4509 16.7012 30.7137 18.9265 34.1996 16.5926C37.659 14.2767 38.3688 6.70689 42.2613 5.09334C46.0866 3.50695 51.935 8.3408 56.0929 7.51856C60.1279 6.72046 63.6824 0 67.952 0C72.2216 0 75.7761 6.72046 79.8111 7.51856C83.969 8.3408 89.8175 3.50771 93.6428 5.09334C97.5352 6.70764 98.245 14.2767 101.704 16.5926C105.19 18.9265 112.453 16.7012 115.409 19.6567C118.365 22.6123 116.14 29.8751 118.474 33.3609C120.789 36.8204 128.359 37.5302 129.973 41.4226C131.559 45.2479 126.725 51.0964 127.548 55.2543C128.345 59.2901 135.065 62.8445 135.065 67.1134Z" fill="#26C04B"/>
<path d="M67.9515 131.21C66.8441 131.21 65.0239 129.52 63.5619 128.161C61.5094 126.256 59.3874 124.284 56.6785 123.749C56.1671 123.648 55.6262 123.597 55.0718 123.597C52.8103 123.597 50.5917 124.42 48.4456 125.215C46.8238 125.817 45.1461 126.439 44.0116 126.439C43.7641 126.439 43.5642 126.408 43.4171 126.347C42.4335 125.939 41.4106 123.702 40.5883 121.905C39.4138 119.337 38.2001 116.681 35.8775 115.127C33.5367 113.559 30.6031 113.448 27.766 113.34C25.8047 113.265 23.3644 113.172 22.6281 112.437C21.8926 111.7 21.7998 109.26 21.7259 107.299C21.6173 104.462 21.5064 101.529 19.9389 99.1874C18.3842 96.8648 15.7289 95.651 13.1611 94.4765C11.3642 93.655 9.12686 92.6321 8.71951 91.6485C8.33178 90.7146 9.17363 88.4433 9.85103 86.6185C10.797 84.0681 11.8689 81.1767 11.3167 78.3863C10.7804 75.6775 8.81003 73.5555 6.9038 71.5037C5.54522 70.041 3.85474 68.2208 3.85474 67.1134C3.85474 66.006 5.54522 64.185 6.9038 62.7223C8.80927 60.6705 10.7804 58.5485 11.3167 55.8397C11.8689 53.0494 10.797 50.158 9.85103 47.6068C9.17363 45.782 8.33254 43.5114 8.71951 42.5783C9.12686 41.5946 11.3642 40.5717 13.1618 39.7495C15.7289 38.575 18.3842 37.3612 19.9389 35.0394C21.5064 32.6979 21.6181 29.7642 21.7259 26.9271C21.8006 24.9658 21.8942 22.5255 22.6289 21.7893C23.3651 21.0538 25.8054 20.9602 27.7667 20.8863C30.6038 20.7784 33.5367 20.6661 35.879 19.0985C38.2001 17.5438 39.4153 14.8893 40.5891 12.3222C41.4113 10.5246 42.4335 8.28724 43.4179 7.87914C43.5642 7.81804 43.7649 7.78711 44.0116 7.78711C45.1461 7.78711 46.8238 8.40944 48.4456 9.01066C50.5917 9.80649 52.8103 10.6295 55.0718 10.6295C55.6262 10.6295 56.1671 10.5782 56.6785 10.4771C59.3874 9.94152 61.5094 7.97041 63.5619 6.06494C65.0246 4.70636 66.8449 3.01587 67.9515 3.01587C69.0596 3.01587 70.8798 4.70636 72.3425 6.06494C74.3943 7.97041 76.5163 9.94152 79.2244 10.4771C79.7359 10.5782 80.2767 10.6295 80.8312 10.6295C83.0919 10.6295 85.3112 9.80649 87.4574 9.01066C89.0792 8.40944 90.7576 7.78711 91.8922 7.78711C92.1396 7.78711 92.3395 7.81804 92.4866 7.87914C93.4702 8.28648 94.4924 10.5239 95.3146 12.3215C96.4891 14.8893 97.7029 17.5438 100.025 19.0985C102.366 20.6661 105.3 20.7777 108.137 20.8856C110.098 20.9602 112.539 21.053 113.275 21.7885C114.011 22.5248 114.104 24.9651 114.178 26.9271C114.286 29.7635 114.397 32.6971 115.965 35.0386C117.52 37.3605 120.175 38.575 122.742 39.7487C124.539 40.5702 126.777 41.5939 127.184 42.5775C127.571 43.5107 126.729 45.7812 126.053 47.606C125.107 50.1572 124.034 53.0494 124.587 55.8389C125.123 58.5478 127.093 60.6698 128.999 62.7223C130.358 64.185 132.048 66.0052 132.048 67.1126C132.048 68.22 130.358 70.0402 128.999 71.5029C127.094 73.5555 125.123 75.6775 124.587 78.3863C124.035 81.1759 125.107 84.0673 126.053 86.6193C126.729 88.444 127.571 90.7146 127.184 91.6477C126.776 92.6314 124.539 93.6543 122.741 94.4765C120.174 95.651 117.519 96.8648 115.964 99.1866C114.397 101.528 114.285 104.462 114.177 107.299C114.102 109.26 114.01 111.701 113.275 112.436C112.539 113.172 110.098 113.265 108.137 113.34C105.3 113.448 102.366 113.559 100.025 115.127C97.7029 116.681 96.4884 119.336 95.3146 121.904C94.4924 123.701 93.4702 125.938 92.4866 126.346C92.3402 126.407 92.1396 126.438 91.8922 126.438C90.7576 126.438 89.0807 125.816 87.4581 125.215C85.312 124.419 83.0934 123.596 80.8319 123.596C80.2775 123.596 79.7366 123.647 79.2252 123.748C76.5171 124.284 74.3951 126.254 72.3433 128.16C70.8798 129.52 69.0596 131.21 67.9515 131.21Z" fill="#FBE0E8"/>
</svg>
